# xmcd CD database file
#
# Track frame offsets:
#	150
#	14026
#	29117
#	39517
#	53406
#	75078
#	89292
#	101727
#	113822
#	140857
#	154947
#	169735
#	184467
#	199672
#	212657
#	225543
#	238990
#	264833
#	319722
#	335043
#
# Disc length: 4634 seconds
#
# Revision: 4
# Processed by: cddbd v1.5.2PL0 Copyright (c) Steve Scherf et al.
# Submitted via: CDex 1.51
#
DISCID=1a121814
DTITLE=Various Artist - City Jazz - Vol. 06-10  { 1937-1938 }
DYEAR=2002
DGENRE=Jazz
TTITLE0=Count Basie - One O'clock Jump  [1937]
TTITLE1=Dicky Wells - Dicky Wells Blues  [1937]
TTITLE2=Teddy Weatherford - Ain't Misbehavin'  [1937]
TTITLE3=Maxine Sullivan and Claude Thornhill - Blue Skies  [1937]
TTITLE4=Bunny Berigan - I Can't Get Started With You  [1937]
TTITLE5=Count Basie - Topsy  [1937]
TTITLE6=Django Reinhardt - Bouncing Around  [1937]
TTITLE7=Billie Holiday - He's Funny That Way  [1937]
TTITLE8=Duke Ellington - Diminuendo And Crescendo In Blue  [1937]
TTITLE9=Eddie South - Eddie's Blues  [1937]
TTITLE10=Chick Webb - Harlem Congo  [1937]
TTITLE11=Django Reinhardt - Minor Swing  [1937]
TTITLE12=Eddie South and Stéphane Grapelli and Django Reinhardt - Impro.1er Mouvement Concerto Bach  [1937]
TTITLE13=Art Tatum - Gone With The Wind  [1937]
TTITLE14=Django Reinhardt - Swingin' With Django  [1937]
TTITLE15=Louis Armstrong - Struttin' With Some Barbecue  [1938]
TTITLE16=Bennie Goodman - Dizzy Spells  [1938]
TTITLE17=Benny Goodman - Sing Sing Sing  [1938]
TTITLE18=Lionel Hampton - Ring Dem Bells  [1938]
TTITLE19=Count Basie - Swinging The Blues  [1938]
EXTD=July 1937 to February 1938 YEAR: 2002
EXTT0=(with Lester Young)
EXTT1=(with Django Reinhardt)
EXTT2=
EXTT3=
EXTT4=
EXTT5=(with Lester Young, Freddie Green)
EXTT6=
EXTT7=(with Lester Young, Freddie Green)
EXTT8=
EXTT9=(with Django Reinhardt)
EXTT10=
EXTT11=(with Stephane Grappelli)
EXTT12=
EXTT13=
EXTT14=(with Stephane Grappelli)
EXTT15=
EXTT16=(with Lionel Hampton, Gene Krupa)
EXTT17=(with Harry James, Gene Krupa)
EXTT18=(with Lionel Hampton)
EXTT19=
PLAYORDER=
